<svg width="512" height="512" viewBox="0 0 512 512" fill="none" xmlns="http://www.w3.org/2000/svg">
<path d="M440.749 118.535L332.466 10.253C325.855 3.641 317.066 0 307.716 0H96C76.701 0 61 15.701 61 35V477C61 496.299 76.701 512 96 512H416C435.299 512 451 496.299 451 477V143.284C451 133.937 447.36 125.148 440.749 118.535ZM399.787 120H336C333.243 120 331 117.757 331 115V51.214L399.787 120ZM416 482H96C93.243 482 91 479.757 91 477V35C91 32.243 93.243 30 96 30H301V115C301 134.299 316.701 150 336 150H421V477C421 479.757 418.757 482 416 482Z" fill="#47DA79"/>
<path d="M272.1 229H367.671C375.955 229 382.671 222.284 382.671 214C382.671 205.716 375.955 199 367.671 199H272.1C263.816 199 257.1 205.716 257.1 214C257.1 222.284 263.815 229 272.1 229Z" fill="#47DA79"/>
<path d="M272.1 329H367.671C375.955 329 382.671 322.284 382.671 314C382.671 305.716 375.955 299 367.671 299H272.1C263.816 299 257.1 305.716 257.1 314C257.1 322.284 263.815 329 272.1 329Z" fill="#47DA79"/>
<path d="M368.1 399H272.1C263.816 399 257.1 405.716 257.1 414C257.1 422.284 263.816 429 272.1 429H368.1C376.384 429 383.1 422.284 383.1 414C383.1 405.716 376.384 399 368.1 399Z" fill="#47DA79"/>
<path d="M197.256 173.157L162.664 207.748L154.507 199.591C148.65 193.733 139.152 193.733 133.294 199.591C127.436 205.449 127.436 214.946 133.294 220.804L152.058 239.568C154.987 242.497 158.826 243.962 162.664 243.962C166.502 243.962 170.342 242.498 173.27 239.568L218.468 194.37C224.326 188.512 224.326 179.015 218.468 173.157C212.611 167.299 203.113 167.299 197.256 173.157Z" fill="#47DA79"/>
<path d="M197.256 280.794L162.664 315.386L154.507 307.229C148.65 301.372 139.152 301.371 133.294 307.229C127.436 313.087 127.436 322.584 133.294 328.442L152.058 347.205C154.987 350.134 158.826 351.598 162.664 351.598C166.502 351.598 170.342 350.134 173.27 347.204L218.468 302.006C224.326 296.148 224.326 286.651 218.468 280.793C212.611 274.936 203.113 274.936 197.256 280.794V280.794Z" fill="#47DA79"/>
<path d="M197.256 380.794L162.664 415.386L154.507 407.229C148.65 401.372 139.152 401.371 133.294 407.229C127.436 413.087 127.436 422.584 133.294 428.442L152.058 447.205C154.987 450.134 158.826 451.598 162.664 451.598C166.502 451.598 170.342 450.134 173.27 447.204L218.468 402.006C224.326 396.148 224.326 386.651 218.468 380.793C212.611 374.936 203.113 374.936 197.256 380.794V380.794Z" fill="#47DA79"/>
</svg>
